<svg width="30" height="30" viewBox="0 0 30 30" fill="none" xmlns="http://www.w3.org/2000/svg">
<path d="M4 17C6.20914 17 8 15.2091 8 13C8 10.7909 6.20914 9 4 9C1.79086 9 0 10.7909 0 13C0 15.2091 1.79086 17 4 17Z" fill="#FDA729"/>
<path d="M15.907 15.3938L26 9.37838L25.2441 8L14.9644 14.1068H14.4308V14.4079L4 20.4235L4.75594 21.811L14.4308 16.2335V26.0192H5.01385V28H25.324V26.0192H15.907V15.3938Z" fill="#FDA729"/>
<path d="M21 9C22.6569 9 24 7.65685 24 6C24 4.34315 22.6569 3 21 3C19.3431 3 18 4.34315 18 6C18 7.65685 19.3431 9 21 9Z" fill="#FDA729"/>
</svg>
